<mxfile host="Electron" modified="2024-07-22T12:49:28.788Z" agent="Mozilla/5.0 (X11; Linux x86_64) AppleWebKit/537.36 (KHTML, like Gecko) draw.io/24.6.4 Chrome/124.0.6367.207 Electron/30.0.6 Safari/537.36" etag="w4uNM67AtIIaxIKC710p" version="24.6.4" type="device">
  <diagram name="Page-1" id="677_0v363ND3AeY2xvX7">
    <mxGraphModel dx="1042" dy="663" grid="1" gridSize="10" guides="1" tooltips="1" connect="1" arrows="1" fold="1" page="1" pageScale="1" pageWidth="1100" pageHeight="850" math="0" shadow="0">
      <root>
        <mxCell id="0" />
        <mxCell id="1" parent="0" />
        <mxCell id="rNb3Nq_eKwGEg8aCowNG-1" value="us-east-1" style="points=[[0,0],[0.25,0],[0.5,0],[0.75,0],[1,0],[1,0.25],[1,0.5],[1,0.75],[1,1],[0.75,1],[0.5,1],[0.25,1],[0,1],[0,0.75],[0,0.5],[0,0.25]];outlineConnect=0;gradientColor=none;html=1;whiteSpace=wrap;fontSize=12;fontStyle=0;container=1;pointerEvents=0;collapsible=0;recursiveResize=0;shape=mxgraph.aws4.group;grIcon=mxgraph.aws4.group_region;strokeColor=#00A4A6;fillColor=none;verticalAlign=top;align=left;spacingLeft=30;fontColor=#147EBA;dashed=1;" parent="1" vertex="1">
          <mxGeometry x="40" y="160" width="1000" height="670" as="geometry" />
        </mxCell>
        <mxCell id="rNb3Nq_eKwGEg8aCowNG-3" value="vpc_01" style="points=[[0,0],[0.25,0],[0.5,0],[0.75,0],[1,0],[1,0.25],[1,0.5],[1,0.75],[1,1],[0.75,1],[0.5,1],[0.25,1],[0,1],[0,0.75],[0,0.5],[0,0.25]];outlineConnect=0;gradientColor=none;html=1;whiteSpace=wrap;fontSize=12;fontStyle=0;container=1;pointerEvents=0;collapsible=0;recursiveResize=0;shape=mxgraph.aws4.group;grIcon=mxgraph.aws4.group_vpc2;strokeColor=#8C4FFF;fillColor=none;verticalAlign=top;align=left;spacingLeft=30;fontColor=#AAB7B8;dashed=0;" parent="rNb3Nq_eKwGEg8aCowNG-1" vertex="1">
          <mxGeometry x="40" y="40" width="920" height="600" as="geometry" />
        </mxCell>
        <mxCell id="rNb3Nq_eKwGEg8aCowNG-2" value="pub_sub_01" style="points=[[0,0],[0.25,0],[0.5,0],[0.75,0],[1,0],[1,0.25],[1,0.5],[1,0.75],[1,1],[0.75,1],[0.5,1],[0.25,1],[0,1],[0,0.75],[0,0.5],[0,0.25]];outlineConnect=0;gradientColor=none;html=1;whiteSpace=wrap;fontSize=12;fontStyle=0;container=1;pointerEvents=0;collapsible=0;recursiveResize=0;shape=mxgraph.aws4.group;grIcon=mxgraph.aws4.group_security_group;grStroke=0;strokeColor=#7AA116;fillColor=#F2F6E8;verticalAlign=top;align=left;spacingLeft=30;fontColor=#248814;dashed=0;" parent="rNb3Nq_eKwGEg8aCowNG-3" vertex="1">
          <mxGeometry x="70" y="180" width="200" height="200" as="geometry" />
        </mxCell>
        <mxCell id="rNb3Nq_eKwGEg8aCowNG-4" value="Bastion Host" style="sketch=0;points=[[0,0,0],[0.25,0,0],[0.5,0,0],[0.75,0,0],[1,0,0],[0,1,0],[0.25,1,0],[0.5,1,0],[0.75,1,0],[1,1,0],[0,0.25,0],[0,0.5,0],[0,0.75,0],[1,0.25,0],[1,0.5,0],[1,0.75,0]];outlineConnect=0;fontColor=#232F3E;fillColor=#ED7100;strokeColor=#ffffff;dashed=0;verticalLabelPosition=bottom;verticalAlign=top;align=center;html=1;fontSize=12;fontStyle=0;aspect=fixed;shape=mxgraph.aws4.resourceIcon;resIcon=mxgraph.aws4.ec2;" parent="rNb3Nq_eKwGEg8aCowNG-2" vertex="1">
          <mxGeometry x="61" y="61" width="78" height="78" as="geometry" />
        </mxCell>
        <mxCell id="rNb3Nq_eKwGEg8aCowNG-5" value="prv_sub_01" style="points=[[0,0],[0.25,0],[0.5,0],[0.75,0],[1,0],[1,0.25],[1,0.5],[1,0.75],[1,1],[0.75,1],[0.5,1],[0.25,1],[0,1],[0,0.75],[0,0.5],[0,0.25]];outlineConnect=0;gradientColor=none;html=1;whiteSpace=wrap;fontSize=12;fontStyle=0;container=1;pointerEvents=0;collapsible=0;recursiveResize=0;shape=mxgraph.aws4.group;grIcon=mxgraph.aws4.group_security_group;grStroke=0;strokeColor=#00A4A6;fillColor=#E6F6F7;verticalAlign=top;align=left;spacingLeft=30;fontColor=#147EBA;dashed=0;" parent="rNb3Nq_eKwGEg8aCowNG-3" vertex="1">
          <mxGeometry x="480" y="23" width="400" height="240" as="geometry" />
        </mxCell>
        <mxCell id="rNb3Nq_eKwGEg8aCowNG-7" value="Primary RDS" style="sketch=0;points=[[0,0,0],[0.25,0,0],[0.5,0,0],[0.75,0,0],[1,0,0],[0,1,0],[0.25,1,0],[0.5,1,0],[0.75,1,0],[1,1,0],[0,0.25,0],[0,0.5,0],[0,0.75,0],[1,0.25,0],[1,0.5,0],[1,0.75,0]];outlineConnect=0;fontColor=#232F3E;fillColor=#C925D1;strokeColor=#ffffff;dashed=0;verticalLabelPosition=bottom;verticalAlign=top;align=center;html=1;fontSize=12;fontStyle=0;aspect=fixed;shape=mxgraph.aws4.resourceIcon;resIcon=mxgraph.aws4.rds;" parent="rNb3Nq_eKwGEg8aCowNG-5" vertex="1">
          <mxGeometry x="161" y="81" width="78" height="78" as="geometry" />
        </mxCell>
        <mxCell id="rNb3Nq_eKwGEg8aCowNG-6" value="prv_sub_02" style="points=[[0,0],[0.25,0],[0.5,0],[0.75,0],[1,0],[1,0.25],[1,0.5],[1,0.75],[1,1],[0.75,1],[0.5,1],[0.25,1],[0,1],[0,0.75],[0,0.5],[0,0.25]];outlineConnect=0;gradientColor=none;html=1;whiteSpace=wrap;fontSize=12;fontStyle=0;container=1;pointerEvents=0;collapsible=0;recursiveResize=0;shape=mxgraph.aws4.group;grIcon=mxgraph.aws4.group_security_group;grStroke=0;strokeColor=#00A4A6;fillColor=#E6F6F7;verticalAlign=top;align=left;spacingLeft=30;fontColor=#147EBA;dashed=0;" parent="rNb3Nq_eKwGEg8aCowNG-3" vertex="1">
          <mxGeometry x="480" y="305" width="400" height="240" as="geometry" />
        </mxCell>
        <mxCell id="rNb3Nq_eKwGEg8aCowNG-8" value="Standby RDS" style="sketch=0;points=[[0,0,0],[0.25,0,0],[0.5,0,0],[0.75,0,0],[1,0,0],[0,1,0],[0.25,1,0],[0.5,1,0],[0.75,1,0],[1,1,0],[0,0.25,0],[0,0.5,0],[0,0.75,0],[1,0.25,0],[1,0.5,0],[1,0.75,0]];outlineConnect=0;fontColor=#232F3E;fillColor=#C925D1;strokeColor=#ffffff;dashed=0;verticalLabelPosition=bottom;verticalAlign=top;align=center;html=1;fontSize=12;fontStyle=0;aspect=fixed;shape=mxgraph.aws4.resourceIcon;resIcon=mxgraph.aws4.rds;" parent="rNb3Nq_eKwGEg8aCowNG-6" vertex="1">
          <mxGeometry x="161" y="81" width="78" height="78" as="geometry" />
        </mxCell>
        <mxCell id="rNb3Nq_eKwGEg8aCowNG-10" value="SecGrp_RDS_01" style="fontStyle=0;verticalAlign=top;align=center;spacingTop=-2;fillColor=none;rounded=0;whiteSpace=wrap;html=1;strokeColor=#FF0000;strokeWidth=2;dashed=1;container=1;collapsible=0;expand=0;recursiveResize=0;" parent="rNb3Nq_eKwGEg8aCowNG-6" vertex="1">
          <mxGeometry x="101" y="-245" width="200" height="450" as="geometry" />
        </mxCell>
        <mxCell id="rNb3Nq_eKwGEg8aCowNG-13" value="&lt;font color=&quot;#ffb570&quot;&gt;us-east-1-1a&lt;/font&gt;" style="fillColor=none;strokeColor=#FFB570;dashed=1;verticalAlign=top;fontStyle=0;fontColor=#147EBA;whiteSpace=wrap;html=1;rotation=90;" parent="rNb3Nq_eKwGEg8aCowNG-3" vertex="1">
          <mxGeometry x="550" y="-80" width="270" height="450" as="geometry" />
        </mxCell>
        <mxCell id="rNb3Nq_eKwGEg8aCowNG-14" value="&lt;font color=&quot;#ffb570&quot;&gt;us-east-1-1ab&lt;/font&gt;" style="fillColor=none;strokeColor=#FFB570;dashed=1;verticalAlign=top;fontStyle=0;fontColor=#147EBA;whiteSpace=wrap;html=1;rotation=90;" parent="rNb3Nq_eKwGEg8aCowNG-3" vertex="1">
          <mxGeometry x="550" y="200" width="270" height="450" as="geometry" />
        </mxCell>
        <mxCell id="rNb3Nq_eKwGEg8aCowNG-15" value="" style="endArrow=classic;html=1;rounded=0;entryX=0.481;entryY=0.6;entryDx=0;entryDy=0;entryPerimeter=0;" parent="rNb3Nq_eKwGEg8aCowNG-3" source="rNb3Nq_eKwGEg8aCowNG-4" target="rNb3Nq_eKwGEg8aCowNG-13" edge="1">
          <mxGeometry width="50" height="50" relative="1" as="geometry">
            <mxPoint x="420" y="320" as="sourcePoint" />
            <mxPoint x="470" y="270" as="targetPoint" />
          </mxGeometry>
        </mxCell>
        <mxCell id="rNb3Nq_eKwGEg8aCowNG-16" value="Connect to the Primary DB using endpoint" style="edgeLabel;html=1;align=center;verticalAlign=middle;resizable=0;points=[];" parent="rNb3Nq_eKwGEg8aCowNG-15" vertex="1" connectable="0">
          <mxGeometry x="-0.0356" y="-1" relative="1" as="geometry">
            <mxPoint as="offset" />
          </mxGeometry>
        </mxCell>
        <mxCell id="rNb3Nq_eKwGEg8aCowNG-17" value="" style="shape=flexArrow;endArrow=classic;startArrow=classic;html=1;rounded=0;entryX=0.778;entryY=0.511;entryDx=0;entryDy=0;entryPerimeter=0;exitX=0.333;exitY=0.511;exitDx=0;exitDy=0;exitPerimeter=0;fillColor=#d5e8d4;strokeColor=#82b366;" parent="rNb3Nq_eKwGEg8aCowNG-3" edge="1">
          <mxGeometry width="100" height="100" relative="1" as="geometry">
            <mxPoint x="680.0499999999997" y="373.90999999999985" as="sourcePoint" />
            <mxPoint x="680.0500000000002" y="214.05999999999995" as="targetPoint" />
          </mxGeometry>
        </mxCell>
        <mxCell id="rNb3Nq_eKwGEg8aCowNG-19" value="Sync replica" style="edgeLabel;html=1;align=center;verticalAlign=middle;resizable=0;points=[];" parent="rNb3Nq_eKwGEg8aCowNG-17" vertex="1" connectable="0">
          <mxGeometry x="0.0624" y="-3" relative="1" as="geometry">
            <mxPoint as="offset" />
          </mxGeometry>
        </mxCell>
        <mxCell id="c4NAwuHkI-2TFfdKn9fm-7" style="edgeStyle=orthogonalEdgeStyle;rounded=0;orthogonalLoop=1;jettySize=auto;html=1;" edge="1" parent="rNb3Nq_eKwGEg8aCowNG-3" source="c4NAwuHkI-2TFfdKn9fm-3" target="rNb3Nq_eKwGEg8aCowNG-4">
          <mxGeometry relative="1" as="geometry" />
        </mxCell>
        <mxCell id="c4NAwuHkI-2TFfdKn9fm-3" value="igw" style="outlineConnect=0;dashed=0;verticalLabelPosition=bottom;verticalAlign=top;align=center;html=1;shape=mxgraph.aws3.internet_gateway;fillColor=#F58536;gradientColor=none;" vertex="1" parent="rNb3Nq_eKwGEg8aCowNG-3">
          <mxGeometry x="140" y="-20" width="60" height="60" as="geometry" />
        </mxCell>
        <mxCell id="c4NAwuHkI-2TFfdKn9fm-5" style="edgeStyle=orthogonalEdgeStyle;rounded=0;orthogonalLoop=1;jettySize=auto;html=1;entryX=1;entryY=0.5;entryDx=0;entryDy=0;" edge="1" parent="1" source="c4NAwuHkI-2TFfdKn9fm-1" target="c4NAwuHkI-2TFfdKn9fm-4">
          <mxGeometry relative="1" as="geometry" />
        </mxCell>
        <mxCell id="c4NAwuHkI-2TFfdKn9fm-1" value="" style="sketch=0;outlineConnect=0;fontColor=#232F3E;gradientColor=none;fillColor=#232F3D;strokeColor=none;dashed=0;verticalLabelPosition=bottom;verticalAlign=top;align=center;html=1;fontSize=12;fontStyle=0;aspect=fixed;pointerEvents=1;shape=mxgraph.aws4.user;" vertex="1" parent="1">
          <mxGeometry x="590" y="38" width="78" height="78" as="geometry" />
        </mxCell>
        <mxCell id="c4NAwuHkI-2TFfdKn9fm-4" value="" style="image;aspect=fixed;perimeter=ellipsePerimeter;html=1;align=center;shadow=0;dashed=0;spacingTop=3;image=img/lib/active_directory/internet_cloud.svg;" vertex="1" parent="1">
          <mxGeometry x="190" y="39" width="120.64" height="76" as="geometry" />
        </mxCell>
        <mxCell id="c4NAwuHkI-2TFfdKn9fm-6" style="edgeStyle=orthogonalEdgeStyle;rounded=0;orthogonalLoop=1;jettySize=auto;html=1;entryX=0.5;entryY=0;entryDx=0;entryDy=0;entryPerimeter=0;" edge="1" parent="1" source="c4NAwuHkI-2TFfdKn9fm-4" target="c4NAwuHkI-2TFfdKn9fm-3">
          <mxGeometry relative="1" as="geometry" />
        </mxCell>
      </root>
    </mxGraphModel>
  </diagram>
</mxfile>
